<svg id="svg" version="1.1" xmlns="http://www.w3.org/2000/svg" xmlns:xlink="http://www.w3.org/1999/xlink" width="400" height="109.44" viewBox="0, 0, 400,109.44"><g id="svgg"><path id="path0" d="M60.598 27.976 C 60.549 28.056,60.503 30.454,60.495 33.306 C 60.486 36.887,60.425 38.526,60.299 38.605 C 60.182 38.677,60.159 38.633,60.237 38.484 C 60.303 38.355,60.248 38.384,60.114 38.549 C 59.956 38.742,59.863 39.259,59.852 40.015 L 59.834 41.183 61.417 41.154 L 63.000 41.124 63.000 39.895 C 63.000 38.778,63.030 38.667,63.333 38.667 C 63.627 38.667,63.667 38.556,63.667 37.734 C 63.667 36.961,63.720 36.788,63.981 36.720 C 64.167 36.671,64.297 36.489,64.298 36.277 C 64.301 35.389,64.650 34.310,64.678 35.097 C 64.690 35.402,64.696 35.401,64.822 35.083 C 64.895 34.900,64.921 34.662,64.881 34.554 C 64.840 34.447,64.965 34.274,65.158 34.171 C 65.351 34.068,65.469 33.917,65.419 33.836 C 65.369 33.756,65.405 33.642,65.500 33.583 C 65.595 33.525,65.630 33.410,65.580 33.327 C 65.529 33.245,65.640 33.082,65.827 32.965 C 66.014 32.849,66.167 32.616,66.167 32.449 C 66.167 32.220,66.250 32.171,66.500 32.250 C 66.760 32.333,66.833 32.280,66.833 32.011 C 66.833 31.690,67.064 31.584,67.612 31.651 C 67.720 31.665,67.908 31.536,68.029 31.365 C 68.151 31.194,68.541 31.008,68.896 30.951 C 69.251 30.894,69.669 30.732,69.825 30.590 C 70.030 30.406,70.470 30.333,71.388 30.333 L 72.667 30.333 72.667 47.583 L 72.667 64.833 70.708 64.851 C 69.631 64.861,68.525 64.870,68.250 64.871 C 67.580 64.874,67.492 65.056,67.523 66.375 L 67.551 67.500 76.984 67.483 C 87.835 67.464,87.233 67.527,87.299 66.410 C 87.387 64.925,87.273 64.870,84.042 64.847 L 82.167 64.833 82.167 47.583 L 82.167 30.333 83.481 30.333 C 84.670 30.333,84.803 30.366,84.885 30.679 C 84.940 30.888,85.096 31.013,85.279 30.993 C 86.069 30.911,86.667 31.013,86.667 31.231 C 86.667 31.357,86.817 31.500,87.000 31.548 C 87.183 31.596,87.333 31.747,87.333 31.883 C 87.333 32.171,87.781 32.385,88.043 32.223 C 88.157 32.153,88.184 32.214,88.117 32.389 C 88.041 32.587,88.100 32.667,88.320 32.667 C 88.512 32.667,88.670 32.826,88.735 33.083 C 88.793 33.313,88.932 33.500,89.046 33.500 C 89.329 33.500,89.677 34.625,89.432 34.747 C 89.332 34.796,89.419 34.806,89.625 34.767 C 89.978 34.702,90.138 35.152,90.018 35.880 C 90.006 35.951,90.110 36.053,90.248 36.106 C 90.413 36.169,90.500 36.426,90.500 36.851 C 90.500 37.208,90.573 37.500,90.661 37.500 C 90.750 37.500,90.780 37.612,90.727 37.750 C 90.666 37.908,90.729 38.000,90.899 38.000 C 91.160 38.000,91.257 38.573,91.175 39.614 C 91.159 39.815,91.300 40.134,91.489 40.323 C 91.679 40.512,91.833 40.779,91.833 40.917 C 91.833 41.117,92.084 41.167,93.090 41.167 L 94.346 41.167 94.321 37.498 C 94.300 34.288,94.262 33.810,94.023 33.676 C 93.787 33.543,93.750 33.144,93.750 30.720 L 93.750 27.917 77.219 27.874 C 67.999 27.851,60.648 27.896,60.598 27.976 M280.176 30.658 C 279.924 30.909,279.587 30.990,278.668 31.016 C 277.737 31.044,277.503 31.100,277.572 31.282 C 277.687 31.581,277.490 31.638,276.083 31.710 C 275.111 31.760,274.921 31.817,274.940 32.052 C 274.961 32.307,273.233 32.504,272.417 32.339 C 272.325 32.321,272.305 32.361,272.372 32.428 C 272.642 32.697,271.870 32.990,270.875 32.995 L 269.833 33.000 269.833 36.827 L 269.833 40.655 268.215 40.702 L 266.597 40.750 266.560 41.413 C 266.505 42.402,266.667 42.500,268.354 42.500 L 269.833 42.500 269.853 52.375 C 269.864 57.806,269.859 62.322,269.841 62.410 C 269.824 62.498,269.940 62.666,270.099 62.782 C 270.278 62.913,270.395 63.234,270.406 63.622 C 270.417 64.013,270.498 64.235,270.622 64.210 C 270.736 64.188,270.781 64.277,270.726 64.419 C 270.674 64.555,270.714 64.667,270.816 64.667 C 270.917 64.667,271.000 64.859,271.000 65.093 C 271.000 65.328,271.069 65.477,271.153 65.425 C 271.353 65.302,271.865 65.814,271.742 66.013 C 271.690 66.098,271.801 66.167,271.990 66.167 C 272.228 66.167,272.333 66.274,272.333 66.518 C 272.333 66.760,272.410 66.839,272.581 66.774 C 272.728 66.718,272.902 66.817,273.010 67.019 C 273.110 67.206,273.290 67.322,273.409 67.276 C 273.528 67.230,273.693 67.259,273.774 67.341 C 273.855 67.422,274.156 67.507,274.443 67.528 C 274.749 67.552,274.934 67.646,274.891 67.756 C 274.793 68.013,274.840 68.016,279.727 68.044 C 283.740 68.068,284.052 68.049,284.261 67.763 C 284.385 67.593,284.658 67.437,284.868 67.416 C 285.078 67.394,285.352 67.366,285.476 67.355 C 285.605 67.342,285.661 67.226,285.606 67.083 C 285.537 66.903,285.625 66.833,285.922 66.833 C 286.222 66.833,286.333 66.743,286.333 66.500 C 286.333 66.278,286.444 66.167,286.667 66.167 C 286.889 66.167,287.000 66.056,287.000 65.833 C 287.000 65.646,287.111 65.500,287.254 65.500 C 287.394 65.500,287.580 65.313,287.667 65.083 C 287.754 64.854,287.939 64.667,288.079 64.667 C 288.219 64.667,288.324 64.610,288.314 64.542 C 288.244 64.102,288.375 63.625,288.639 63.361 C 288.839 63.161,288.954 62.777,288.974 62.247 C 288.992 61.776,289.117 61.314,289.272 61.142 C 289.727 60.640,289.780 59.392,289.353 59.256 C 289.159 59.195,288.999 59.056,288.997 58.947 C 288.996 58.831,288.929 58.852,288.833 59.000 C 288.703 59.202,288.671 59.178,288.669 58.875 C 288.666 58.393,288.049 58.366,287.469 58.822 C 287.114 59.101,287.056 59.292,287.029 60.268 C 287.004 61.170,286.929 61.458,286.650 61.718 C 286.410 61.942,286.323 62.187,286.370 62.510 C 286.421 62.857,286.361 62.997,286.136 63.056 C 285.970 63.100,285.833 63.246,285.833 63.382 C 285.833 63.517,285.683 63.667,285.500 63.715 C 285.317 63.763,285.167 63.922,285.167 64.068 C 285.167 64.214,285.089 64.333,284.994 64.333 C 284.899 64.333,284.630 64.459,284.395 64.613 C 283.728 65.050,282.133 64.959,282.416 64.500 C 282.473 64.408,282.375 64.333,282.197 64.333 C 281.872 64.333,281.557 63.479,281.761 63.150 C 281.811 63.067,281.736 63.000,281.593 63.000 C 281.361 63.000,281.333 61.922,281.333 52.750 L 281.333 42.500 284.811 42.500 L 288.290 42.500 288.270 41.625 L 288.250 40.750 284.792 40.705 L 281.333 40.660 281.333 35.826 L 281.333 30.993 280.922 30.805 C 280.696 30.702,280.550 30.554,280.598 30.476 C 280.757 30.219,280.507 30.327,280.176 30.658 M214.833 38.790 C 214.696 38.838,214.457 38.987,214.302 39.122 C 214.147 39.256,213.741 39.367,213.400 39.367 C 212.904 39.367,212.666 39.487,212.217 39.963 C 211.907 40.291,211.707 40.422,211.772 40.253 C 211.854 40.040,211.830 39.982,211.695 40.066 C 211.588 40.132,211.500 40.286,211.500 40.407 C 211.500 40.528,211.340 40.670,211.145 40.721 C 210.902 40.784,210.823 40.898,210.893 41.082 C 210.951 41.234,210.927 41.308,210.836 41.252 C 210.748 41.197,210.544 41.306,210.384 41.493 C 210.224 41.680,209.997 41.833,209.880 41.833 C 209.762 41.833,209.667 41.974,209.667 42.146 C 209.667 42.362,209.507 42.490,209.151 42.561 C 208.829 42.626,208.603 42.790,208.549 42.999 C 208.500 43.183,208.360 43.333,208.236 43.333 C 208.113 43.333,207.931 43.483,207.833 43.667 C 207.735 43.850,207.698 44.000,207.750 44.000 C 207.802 44.000,207.764 44.152,207.664 44.338 C 207.565 44.524,207.414 44.633,207.330 44.581 C 207.140 44.464,206.927 45.246,207.080 45.495 C 207.142 45.595,207.021 45.814,206.812 45.983 C 206.531 46.211,206.437 46.453,206.450 46.915 C 206.464 47.383,206.394 47.559,206.172 47.617 C 205.917 47.684,205.871 47.915,205.846 49.272 C 205.821 50.590,205.763 50.904,205.492 51.175 C 205.147 51.520,205.055 52.000,205.333 52.000 C 205.425 52.000,205.500 52.079,205.500 52.177 C 205.500 52.274,205.425 52.307,205.333 52.250 C 205.225 52.183,205.167 53.023,205.167 54.647 L 205.167 57.146 205.875 57.252 C 206.669 57.370,212.429 57.297,212.552 57.167 C 212.596 57.121,212.660 55.566,212.695 53.713 C 212.749 50.820,212.797 50.312,213.034 50.129 C 213.186 50.012,213.334 49.767,213.363 49.583 C 213.393 49.400,213.548 49.152,213.708 49.032 C 213.887 48.898,214.000 48.593,214.000 48.241 C 214.000 47.925,214.073 47.667,214.161 47.667 C 214.250 47.667,214.276 47.789,214.218 47.939 C 214.146 48.127,214.187 48.188,214.348 48.135 C 214.478 48.092,214.607 47.820,214.636 47.529 C 214.671 47.174,214.781 46.994,214.969 46.981 C 215.576 46.939,215.658 46.904,215.997 46.540 C 216.240 46.281,216.465 46.193,216.723 46.258 C 216.977 46.322,217.199 46.240,217.413 46.004 C 217.736 45.647,221.833 45.485,221.833 45.830 C 221.833 45.902,222.115 46.172,222.458 46.431 C 222.802 46.690,222.980 46.774,222.855 46.618 C 222.657 46.373,222.663 46.333,222.896 46.333 C 223.045 46.333,223.167 46.446,223.167 46.583 C 223.167 46.721,223.274 46.833,223.405 46.833 C 223.536 46.833,223.667 47.002,223.697 47.208 C 223.731 47.446,223.857 47.575,224.042 47.560 C 224.221 47.546,224.333 47.654,224.333 47.841 C 224.333 48.008,224.483 48.192,224.667 48.250 C 224.850 48.308,225.000 48.463,225.000 48.595 C 225.000 48.726,225.148 48.981,225.328 49.161 C 225.509 49.342,225.683 49.750,225.716 50.067 C 225.748 50.385,225.882 50.781,226.012 50.948 C 226.230 51.224,226.225 51.230,225.958 51.021 C 225.682 50.805,225.669 50.967,225.702 54.021 L 225.738 57.250 225.833 54.333 L 225.929 51.417 226.000 54.333 L 226.070 57.250 226.164 54.583 L 226.258 51.917 226.338 54.583 L 226.417 57.250 229.333 57.300 C 230.938 57.328,232.569 57.304,232.958 57.248 L 233.667 57.146 233.667 54.606 C 233.667 53.025,233.599 51.999,233.488 51.888 C 233.389 51.789,233.295 50.930,233.277 49.945 C 233.247 48.338,233.209 48.148,232.859 47.821 C 232.570 47.552,232.499 47.352,232.575 47.023 C 232.631 46.781,232.618 46.669,232.547 46.773 C 232.452 46.911,232.358 46.900,232.202 46.732 C 232.026 46.543,232.026 46.500,232.202 46.497 C 232.358 46.496,232.364 46.461,232.223 46.372 C 232.117 46.304,232.005 46.024,231.973 45.749 C 231.933 45.395,231.832 45.257,231.625 45.273 C 231.430 45.289,231.333 45.177,231.333 44.935 C 231.333 44.736,231.183 44.465,231.000 44.333 C 230.817 44.201,230.667 43.960,230.667 43.798 C 230.667 43.636,230.517 43.409,230.333 43.295 C 230.150 43.180,229.999 42.973,229.997 42.835 C 229.995 42.630,229.968 42.625,229.852 42.809 C 229.752 42.967,229.674 42.980,229.594 42.851 C 229.532 42.750,229.522 42.667,229.573 42.667 C 229.625 42.667,229.498 42.498,229.292 42.292 C 229.085 42.085,228.863 41.935,228.798 41.956 C 228.732 41.978,228.719 41.890,228.769 41.761 C 228.827 41.608,228.724 41.506,228.471 41.468 C 228.258 41.435,228.102 41.317,228.125 41.204 C 228.148 41.092,228.110 41.009,228.042 41.020 C 227.712 41.072,227.608 40.979,227.833 40.833 C 228.019 40.713,227.923 40.671,227.458 40.669 C 226.945 40.667,226.833 40.607,226.833 40.333 C 226.833 40.111,226.722 40.000,226.500 40.000 C 226.317 40.000,226.167 39.889,226.167 39.753 C 226.167 39.501,225.400 39.211,225.217 39.394 C 225.161 39.450,224.863 39.339,224.554 39.148 C 224.244 38.957,223.877 38.845,223.737 38.899 C 223.588 38.956,223.526 38.926,223.587 38.827 C 223.695 38.652,215.333 38.617,214.833 38.790 M106.208 39.444 C 106.094 39.490,106.000 39.634,106.000 39.764 C 106.000 39.976,103.800 40.141,102.458 40.028 C 102.270 40.013,102.167 40.122,102.167 40.335 C 102.167 40.629,102.054 40.667,101.167 40.667 C 100.268 40.667,100.167 40.702,100.167 41.010 C 100.167 41.209,100.093 41.307,99.990 41.244 C 99.780 41.114,98.833 41.477,98.833 41.687 C 98.833 41.767,98.726 41.833,98.595 41.833 C 98.463 41.833,98.308 41.983,98.250 42.167 C 98.192 42.350,98.065 42.500,97.968 42.500 C 97.859 42.500,97.871 42.405,98.000 42.250 C 98.114 42.112,98.141 42.000,98.060 42.000 C 97.980 42.000,97.818 42.153,97.701 42.340 C 97.585 42.527,97.405 42.628,97.302 42.564 C 97.199 42.500,97.159 42.520,97.213 42.607 C 97.366 42.854,97.090 43.181,96.705 43.210 C 96.513 43.224,96.360 43.277,96.365 43.326 C 96.394 43.654,96.289 43.806,95.978 43.887 C 95.741 43.949,95.656 44.066,95.723 44.240 C 95.792 44.421,95.724 44.500,95.498 44.500 C 95.279 44.500,95.140 44.649,95.073 44.958 C 94.904 45.729,94.842 45.858,94.685 45.762 C 94.484 45.637,94.348 46.028,94.406 46.564 C 94.443 46.895,94.380 47.000,94.144 47.000 C 93.894 47.000,93.833 47.127,93.833 47.647 C 93.833 48.157,93.762 48.313,93.495 48.383 C 93.309 48.432,93.168 48.534,93.182 48.611 C 93.352 49.577,93.132 51.470,92.842 51.546 C 92.349 51.675,92.344 56.909,92.836 57.335 C 93.087 57.553,93.162 57.881,93.201 58.930 C 93.233 59.796,93.317 60.250,93.444 60.250 C 93.747 60.250,93.815 60.382,93.860 61.053 C 93.889 61.483,93.969 61.650,94.118 61.593 C 94.334 61.510,94.395 61.674,94.345 62.194 C 94.330 62.346,94.397 62.520,94.495 62.580 C 94.592 62.640,94.629 62.760,94.576 62.845 C 94.523 62.930,94.643 63.000,94.841 63.000 C 95.103 63.000,95.174 63.073,95.100 63.265 C 95.033 63.442,95.110 63.560,95.333 63.618 C 95.516 63.666,95.667 63.842,95.667 64.010 C 95.667 64.224,95.765 64.295,96.000 64.250 C 96.206 64.210,96.333 64.276,96.333 64.421 C 96.333 64.572,96.234 64.618,96.056 64.550 C 95.870 64.478,95.818 64.507,95.899 64.638 C 95.965 64.746,96.131 64.833,96.267 64.833 C 96.403 64.833,96.675 64.983,96.872 65.167 C 97.069 65.350,97.328 65.500,97.448 65.500 C 97.568 65.500,97.667 65.650,97.667 65.833 C 97.667 66.056,97.778 66.167,98.000 66.167 C 98.183 66.167,98.333 66.278,98.333 66.413 C 98.333 66.656,98.732 66.822,99.440 66.875 C 99.680 66.893,99.766 66.982,99.703 67.146 C 99.635 67.322,99.688 67.361,99.888 67.284 C 100.041 67.225,100.167 67.250,100.167 67.339 C 100.167 67.427,100.504 67.500,100.917 67.500 C 101.329 67.500,101.667 67.572,101.667 67.660 C 101.667 68.022,103.092 68.148,106.667 68.104 C 110.583 68.056,110.806 68.035,111.221 67.690 C 111.361 67.574,111.800 67.463,112.195 67.443 C 112.724 67.416,112.929 67.331,112.969 67.120 C 113.017 66.871,113.512 66.730,114.042 66.814 C 114.110 66.824,114.158 66.777,114.147 66.708 C 114.093 66.367,114.190 66.167,114.409 66.167 C 114.723 66.167,115.500 65.390,115.500 65.076 C 115.500 64.942,115.610 64.833,115.744 64.833 C 115.878 64.833,116.069 64.683,116.167 64.500 C 116.265 64.317,116.453 64.167,116.584 64.167 C 116.721 64.167,116.784 64.067,116.733 63.932 C 116.679 63.790,116.780 63.653,116.988 63.587 C 117.178 63.527,117.339 63.389,117.346 63.280 C 117.380 62.760,117.497 62.455,117.731 62.278 C 117.893 62.154,118.004 61.749,118.035 61.167 C 118.072 60.469,118.144 60.254,118.337 60.267 C 118.533 60.280,118.590 60.092,118.587 59.433 L 118.583 58.583 117.083 58.583 C 115.421 58.583,115.581 58.452,115.525 59.864 C 115.506 60.316,115.413 60.505,115.170 60.582 C 114.989 60.640,114.847 60.739,114.856 60.802 C 114.922 61.264,114.795 61.667,114.583 61.667 C 114.371 61.667,114.256 61.951,114.307 62.355 C 114.314 62.413,114.192 62.451,114.035 62.439 C 113.860 62.425,113.730 62.557,113.698 62.782 C 113.663 63.029,113.564 63.117,113.396 63.052 C 113.235 62.990,113.114 63.082,113.054 63.312 C 112.969 63.637,112.799 63.742,112.450 63.684 C 112.377 63.671,112.340 63.794,112.367 63.956 C 112.405 64.183,112.284 64.262,111.833 64.301 C 111.513 64.329,111.155 64.476,111.040 64.627 C 110.714 65.053,106.552 65.051,106.441 64.625 C 106.392 64.439,106.203 64.333,105.920 64.333 C 105.468 64.333,104.932 63.957,105.119 63.770 C 105.216 63.673,104.857 63.603,104.369 63.623 C 104.201 63.630,104.198 63.580,104.355 63.391 C 104.517 63.195,104.487 63.132,104.194 63.055 C 103.985 63.001,103.833 62.829,103.833 62.647 C 103.833 62.475,103.721 62.333,103.583 62.333 C 103.424 62.333,103.333 62.173,103.333 61.895 C 103.333 61.653,103.186 61.328,103.006 61.172 C 102.749 60.949,102.673 60.648,102.648 59.756 C 102.622 58.808,102.567 58.609,102.309 58.542 C 102.025 58.468,102.000 58.252,102.000 55.897 L 102.000 53.333 110.208 53.314 C 114.723 53.303,118.464 53.300,118.523 53.307 C 118.665 53.325,118.711 49.642,118.573 49.283 C 118.513 49.127,118.360 49.000,118.232 49.000 C 118.053 49.000,118.000 48.695,118.000 47.667 C 118.000 46.593,117.951 46.333,117.750 46.333 C 117.486 46.333,117.446 46.198,117.495 45.458 C 117.517 45.119,117.446 44.997,117.221 44.987 C 117.046 44.979,117.005 44.938,117.125 44.890 C 117.240 44.843,117.333 44.729,117.333 44.635 C 117.333 44.541,117.221 44.508,117.083 44.560 C 116.844 44.652,116.763 44.491,116.821 44.042 C 116.836 43.927,116.695 43.833,116.507 43.833 C 116.176 43.833,116.091 43.620,116.158 42.958 C 116.174 42.798,116.111 42.667,116.017 42.667 C 115.923 42.667,115.689 42.498,115.496 42.292 C 115.203 41.978,115.166 41.968,115.266 42.231 C 115.354 42.460,115.323 42.524,115.152 42.467 C 115.022 42.424,114.915 42.320,114.912 42.236 C 114.899 41.757,113.996 41.046,113.663 41.252 C 113.573 41.308,113.500 41.207,113.500 41.029 C 113.500 40.765,113.379 40.704,112.835 40.697 C 112.151 40.687,111.405 40.317,111.626 40.096 C 111.694 40.028,111.675 39.987,111.583 40.006 C 110.572 40.210,107.864 39.968,107.785 39.667 C 107.737 39.483,107.607 39.333,107.495 39.333 C 107.340 39.333,107.342 39.392,107.503 39.587 C 107.619 39.727,107.666 39.890,107.607 39.948 C 107.548 40.007,107.500 39.968,107.500 39.861 C 107.500 39.754,107.346 39.667,107.157 39.667 C 106.968 39.667,106.860 39.592,106.917 39.500 C 107.022 39.329,106.580 39.294,106.208 39.444 M303.333 39.667 C 303.040 39.960,302.778 40.000,301.151 40.000 C 299.442 40.000,299.296 40.025,299.215 40.333 C 299.137 40.632,298.269 40.808,297.464 40.688 C 297.399 40.679,297.388 40.782,297.440 40.919 C 297.493 41.055,297.471 41.173,297.393 41.180 C 297.314 41.188,297.036 41.209,296.774 41.228 C 296.512 41.247,296.203 41.391,296.089 41.548 C 295.974 41.705,295.715 41.833,295.513 41.833 C 295.312 41.833,295.181 41.890,295.223 41.958 C 295.264 42.027,295.194 42.180,295.066 42.298 C 294.938 42.416,294.833 42.464,294.833 42.403 C 294.833 42.342,294.733 42.376,294.610 42.478 C 294.487 42.580,294.337 42.614,294.276 42.554 C 294.216 42.494,294.167 42.607,294.167 42.806 C 294.167 43.056,294.064 43.167,293.833 43.167 C 293.611 43.167,293.500 43.278,293.500 43.500 C 293.500 43.694,293.389 43.833,293.234 43.833 C 293.088 43.833,292.930 43.983,292.882 44.167 C 292.833 44.351,292.654 44.500,292.481 44.500 C 292.278 44.500,292.167 44.618,292.167 44.833 C 292.167 45.058,292.056 45.167,291.826 45.167 C 291.639 45.167,291.498 45.260,291.512 45.375 C 291.588 45.960,291.471 46.302,291.167 46.382 C 290.967 46.434,290.833 46.609,290.833 46.818 C 290.833 47.383,290.827 47.402,290.504 47.750 C 290.317 47.952,290.196 48.328,290.198 48.704 C 290.199 49.053,290.083 49.440,289.933 49.590 C 289.511 50.013,289.534 58.277,289.958 58.607 C 290.236 58.823,290.236 58.829,289.958 58.733 C 289.590 58.604,289.579 58.816,289.941 59.081 C 290.092 59.191,290.230 59.499,290.248 59.766 C 290.266 60.032,290.293 60.419,290.307 60.625 C 290.322 60.836,290.443 61.000,290.583 61.000 C 290.751 61.000,290.833 61.168,290.833 61.510 C 290.833 61.803,290.903 61.976,290.998 61.918 C 291.093 61.859,291.121 61.926,291.064 62.075 C 290.999 62.242,291.059 62.333,291.232 62.333 C 291.473 62.333,291.575 62.525,291.520 62.875 C 291.509 62.944,291.556 62.991,291.625 62.980 C 292.014 62.919,292.167 63.047,292.167 63.434 C 292.167 63.769,292.230 63.845,292.440 63.764 C 292.669 63.676,292.679 63.701,292.503 63.913 C 292.326 64.126,292.346 64.167,292.628 64.167 C 292.845 64.167,292.955 64.270,292.940 64.458 C 292.926 64.638,293.034 64.750,293.221 64.751 C 293.388 64.752,293.599 64.885,293.689 65.046 C 293.780 65.208,293.924 65.297,294.010 65.244 C 294.096 65.190,294.167 65.226,294.167 65.323 C 294.167 65.421,294.314 65.500,294.495 65.500 C 294.714 65.500,294.792 65.581,294.730 65.743 C 294.649 65.954,295.147 66.212,295.694 66.244 C 295.756 66.247,295.868 66.318,295.944 66.402 C 296.027 66.492,295.982 66.496,295.833 66.411 C 295.618 66.289,295.615 66.308,295.812 66.551 C 295.938 66.706,296.185 66.833,296.361 66.833 C 296.537 66.833,296.827 66.970,297.006 67.137 C 297.219 67.335,297.635 67.454,298.204 67.480 C 298.684 67.502,299.115 67.572,299.163 67.636 C 299.678 68.322,309.333 68.412,309.333 67.731 C 309.333 67.604,309.465 67.495,309.625 67.489 C 310.608 67.454,311.062 67.330,311.352 67.018 C 311.532 66.825,311.829 66.667,312.012 66.667 C 312.194 66.667,312.384 66.561,312.434 66.432 C 312.484 66.302,312.713 66.149,312.944 66.091 C 313.222 66.022,313.332 65.904,313.270 65.743 C 313.213 65.594,313.278 65.500,313.438 65.500 C 313.581 65.500,313.737 65.350,313.785 65.167 C 313.833 64.983,313.983 64.833,314.118 64.833 C 314.254 64.833,314.404 64.683,314.452 64.500 C 314.531 64.196,314.703 64.093,315.042 64.147 C 315.110 64.158,315.169 63.998,315.172 63.792 C 315.178 63.367,315.560 62.782,315.725 62.947 C 315.784 63.007,315.833 62.743,315.833 62.361 C 315.833 61.778,315.887 61.667,316.167 61.667 C 316.449 61.667,316.500 61.556,316.500 60.934 C 316.500 60.437,316.580 60.172,316.750 60.106 C 316.887 60.054,317.000 59.924,317.000 59.818 C 317.000 59.677,316.941 59.675,316.778 59.810 C 316.601 59.957,316.556 59.894,316.556 59.503 C 316.556 59.100,316.589 59.058,316.742 59.267 C 316.895 59.477,316.925 59.438,316.909 59.053 C 316.890 58.613,316.838 58.580,316.081 58.531 C 314.842 58.452,314.471 58.593,314.506 59.131 C 314.554 59.871,314.513 59.994,314.250 59.894 C 314.053 59.818,314.000 59.942,314.000 60.482 C 314.000 61.056,313.946 61.167,313.667 61.167 C 313.483 61.167,313.342 61.223,313.353 61.292 C 313.449 61.902,313.303 62.333,313.000 62.333 C 312.778 62.333,312.667 62.444,312.667 62.667 C 312.667 62.889,312.556 63.000,312.333 63.000 C 312.150 63.000,312.009 63.056,312.020 63.125 C 312.079 63.498,311.963 63.667,311.649 63.667 C 311.409 63.667,311.327 63.744,311.392 63.911 C 311.510 64.219,311.299 64.352,310.663 64.370 C 310.315 64.380,310.177 64.460,310.207 64.635 C 310.241 64.831,310.054 64.890,309.359 64.905 C 308.723 64.918,308.408 65.006,308.257 65.212 C 307.986 65.583,306.633 65.612,306.335 65.252 C 306.222 65.115,306.059 65.047,305.974 65.100 C 305.889 65.152,305.713 65.108,305.585 65.001 C 305.456 64.895,305.178 64.829,304.967 64.857 C 304.516 64.915,304.120 64.710,304.257 64.488 C 304.310 64.403,304.199 64.333,304.010 64.333 C 303.703 64.333,303.588 64.163,303.647 63.792 C 303.658 63.723,303.517 63.667,303.333 63.667 C 303.150 63.667,303.000 63.566,303.000 63.442 C 303.000 63.319,302.850 63.083,302.667 62.917 C 302.483 62.751,302.333 62.454,302.333 62.258 C 302.333 62.061,302.240 61.799,302.125 61.676 C 301.957 61.494,301.961 61.476,302.147 61.582 C 302.304 61.672,302.350 61.640,302.292 61.482 C 302.246 61.354,302.124 61.269,302.021 61.292 C 301.918 61.315,301.828 61.240,301.821 61.125 C 301.814 61.010,301.776 60.467,301.736 59.917 C 301.696 59.367,301.665 58.710,301.667 58.458 C 301.670 58.206,301.588 58.000,301.485 58.000 C 301.382 58.000,301.341 58.112,301.394 58.250 C 301.446 58.387,301.417 58.500,301.328 58.500 C 301.231 58.500,301.167 57.472,301.167 55.917 L 301.167 53.333 308.958 53.331 C 313.244 53.329,316.827 53.273,316.922 53.206 C 317.130 53.057,317.218 49.782,317.011 49.910 C 316.930 49.960,316.903 49.851,316.951 49.669 C 317.006 49.459,316.940 49.300,316.769 49.234 C 316.553 49.151,316.500 48.871,316.500 47.800 C 316.500 46.609,316.465 46.460,316.167 46.382 C 315.945 46.324,315.829 46.148,315.821 45.856 C 315.794 44.946,315.617 44.494,315.380 44.731 C 315.314 44.797,315.370 44.921,315.505 45.007 C 315.711 45.137,315.704 45.162,315.460 45.164 C 315.270 45.166,315.171 45.038,315.171 44.792 C 315.172 44.176,315.117 43.851,315.014 43.862 C 314.695 43.897,314.499 43.807,314.494 43.625 C 314.487 43.339,313.981 42.757,313.530 42.516 C 313.325 42.406,313.201 42.245,313.255 42.158 C 313.309 42.071,313.157 41.925,312.917 41.833 C 312.676 41.742,312.523 41.597,312.577 41.511 C 312.630 41.425,312.339 41.305,311.932 41.244 C 311.456 41.172,311.218 41.061,311.267 40.932 C 311.318 40.800,311.106 40.718,310.637 40.691 C 310.248 40.668,309.845 40.579,309.741 40.493 C 309.637 40.407,309.497 40.392,309.429 40.460 C 309.361 40.528,309.331 40.471,309.361 40.333 C 309.407 40.125,309.100 40.074,307.502 40.029 C 306.358 39.997,305.493 39.897,305.352 39.779 C 305.222 39.672,304.984 39.606,304.822 39.633 C 304.661 39.660,304.481 39.604,304.422 39.508 C 304.247 39.226,303.693 39.307,303.333 39.667 M136.667 40.345 C 136.667 40.610,136.547 40.667,135.990 40.667 C 135.582 40.667,135.354 40.733,135.417 40.833 C 135.473 40.925,135.436 41.000,135.333 41.000 C 135.231 41.000,135.182 41.056,135.224 41.125 C 135.267 41.194,135.106 41.262,134.868 41.276 C 134.630 41.290,134.356 41.408,134.259 41.536 C 134.162 41.665,133.951 41.820,133.790 41.881 C 133.629 41.941,133.506 42.049,133.518 42.120 C 133.580 42.495,133.475 42.647,133.223 42.550 C 133.021 42.473,132.983 42.504,133.082 42.664 C 133.173 42.811,133.154 42.845,133.026 42.766 C 132.915 42.698,132.833 42.225,132.833 41.655 L 132.833 40.663 126.458 40.706 L 120.083 40.750 120.083 41.917 L 120.083 43.083 121.958 43.130 L 123.833 43.178 123.833 54.005 L 123.833 64.833 122.344 64.833 C 120.092 64.833,119.961 64.916,120.028 66.293 L 120.083 67.417 128.042 67.463 L 136.000 67.509 136.000 66.275 L 136.000 65.042 135.479 64.938 C 135.193 64.880,134.480 64.833,133.896 64.833 L 132.833 64.833 132.833 57.026 C 132.833 49.476,132.844 49.209,133.161 48.922 C 133.398 48.707,133.473 48.459,133.434 48.021 C 133.374 47.358,133.593 46.768,133.842 46.922 C 133.929 46.976,134.000 46.825,134.000 46.586 C 134.000 46.348,134.150 45.992,134.333 45.795 C 134.517 45.598,134.667 45.339,134.667 45.219 C 134.667 45.098,134.808 45.000,134.981 45.000 C 135.159 45.000,135.334 44.849,135.386 44.650 C 135.440 44.443,135.555 44.348,135.667 44.417 C 135.778 44.486,135.893 44.390,135.947 44.183 C 136.039 43.833,136.278 43.766,137.220 43.829 C 137.572 43.853,137.714 43.773,137.781 43.514 C 137.882 43.129,138.084 43.065,138.266 43.359 C 138.340 43.478,138.312 43.506,138.192 43.433 C 138.087 43.367,138.000 43.388,138.000 43.479 C 138.000 43.644,138.507 43.867,138.774 43.819 C 139.131 43.755,139.316 43.852,139.235 44.061 C 139.183 44.197,139.287 44.326,139.491 44.379 C 139.841 44.471,139.915 44.882,139.836 46.304 C 139.812 46.739,139.880 46.877,140.153 46.948 C 140.499 47.039,140.500 47.061,140.500 55.936 L 140.500 64.833 139.125 64.836 C 137.374 64.839,137.371 64.842,137.396 66.250 L 137.417 67.417 144.875 67.454 C 149.906 67.478,152.333 67.434,152.333 67.319 C 152.333 67.224,152.410 67.195,152.505 67.253 C 152.615 67.321,152.665 67.032,152.646 66.435 C 152.628 65.899,152.549 65.553,152.457 65.610 C 152.363 65.668,152.344 65.563,152.410 65.354 C 152.477 65.144,152.450 65.000,152.345 65.000 C 152.247 65.000,152.164 65.094,152.162 65.208 C 152.159 65.324,152.081 65.287,151.987 65.125 C 151.851 64.891,151.586 64.833,150.658 64.833 L 149.500 64.833 149.471 57.458 C 149.431 47.375,149.407 48.167,149.750 48.167 C 149.887 48.167,150.000 48.087,150.000 47.990 C 150.000 47.893,149.906 47.867,149.792 47.931 C 149.625 48.025,149.625 48.004,149.792 47.824 C 149.906 47.701,150.000 47.424,150.000 47.210 C 150.000 46.995,150.150 46.658,150.333 46.462 C 150.517 46.265,150.667 45.976,150.667 45.820 C 150.667 45.480,151.111 45.267,151.226 45.551 C 151.271 45.660,151.313 45.581,151.320 45.375 C 151.329 45.135,151.438 44.999,151.625 44.997 C 151.842 44.996,151.861 44.960,151.700 44.858 C 151.530 44.750,151.546 44.670,151.774 44.485 C 152.027 44.280,152.045 44.282,151.920 44.500 C 151.818 44.678,151.872 44.666,152.110 44.458 C 152.293 44.297,152.494 44.216,152.555 44.277 C 152.617 44.339,152.667 44.264,152.667 44.111 C 152.667 43.866,153.156 43.726,153.708 43.814 C 153.777 43.824,153.834 43.702,153.836 43.542 C 153.838 43.302,153.866 43.293,153.990 43.489 C 154.110 43.679,154.192 43.687,154.385 43.527 C 154.578 43.366,154.647 43.376,154.725 43.579 C 154.783 43.730,155.029 43.833,155.328 43.833 C 155.665 43.833,155.833 43.916,155.833 44.082 C 155.833 44.219,155.983 44.424,156.167 44.539 C 156.494 44.743,156.500 44.927,156.500 54.783 L 156.500 64.819 155.292 64.868 L 154.083 64.917 154.083 66.167 L 154.083 67.417 161.667 67.417 L 169.250 67.417 169.305 66.367 C 169.385 64.861,169.300 64.799,167.261 64.854 L 165.583 64.899 165.540 57.331 C 165.511 52.287,165.552 49.819,165.663 49.930 C 165.768 50.035,165.847 52.852,165.875 57.507 L 165.920 64.917 165.960 57.050 C 165.995 50.208,165.967 49.165,165.750 49.044 C 165.554 48.934,165.496 48.504,165.477 47.039 C 165.456 45.379,165.419 45.164,165.143 45.076 C 164.895 44.997,164.833 44.810,164.833 44.140 C 164.833 43.442,164.778 43.288,164.500 43.215 C 164.192 43.134,164.091 42.959,164.151 42.613 C 164.164 42.537,164.098 42.523,164.004 42.581 C 163.910 42.639,163.833 42.622,163.833 42.542 C 163.833 42.221,162.663 41.132,162.419 41.226 C 162.246 41.292,162.167 41.219,162.167 40.995 C 162.167 40.725,162.052 40.667,161.519 40.667 C 161.004 40.667,160.875 40.607,160.894 40.375 C 160.930 39.910,153.595 39.842,153.189 40.303 C 153.039 40.473,152.672 40.660,152.373 40.719 C 151.823 40.827,150.923 41.377,150.549 41.833 C 150.436 41.971,150.334 42.008,150.322 41.917 C 150.310 41.825,150.246 41.938,150.181 42.167 C 150.104 42.435,149.960 42.566,149.778 42.534 C 149.622 42.506,149.505 42.544,149.517 42.617 C 149.581 42.998,149.463 43.168,149.125 43.180 C 148.919 43.187,148.836 43.228,148.941 43.271 C 149.105 43.339,148.967 44.081,148.716 44.482 C 148.582 44.696,148.167 44.043,148.167 43.618 C 148.167 43.339,148.118 43.160,148.058 43.220 C 147.894 43.384,147.511 42.801,147.505 42.378 C 147.502 42.120,147.369 41.973,147.073 41.899 C 146.803 41.831,146.679 41.708,146.735 41.563 C 146.789 41.422,146.710 41.333,146.532 41.333 C 146.372 41.333,146.112 41.183,145.955 41.000 C 145.702 40.704,145.166 40.573,144.542 40.654 C 144.427 40.669,144.333 40.599,144.333 40.497 C 144.333 40.396,144.408 40.360,144.500 40.417 C 144.592 40.473,144.667 40.448,144.667 40.361 C 144.667 40.059,143.797 39.989,140.241 40.007 C 136.828 40.023,136.667 40.039,136.667 40.345 M170.105 40.132 C 170.060 40.204,170.037 40.898,170.053 41.673 L 170.083 43.083 171.958 43.130 L 173.833 43.178 173.833 60.755 L 173.833 78.333 171.917 78.333 L 170.000 78.333 170.000 79.585 L 170.000 80.836 179.875 80.793 L 189.750 80.750 189.777 79.750 C 189.817 78.283,189.949 78.333,186.063 78.333 L 182.667 78.333 182.667 72.535 C 182.667 66.857,182.674 66.737,183.000 66.712 C 183.183 66.699,183.333 66.753,183.333 66.834 C 183.333 66.915,183.482 66.952,183.663 66.917 C 183.845 66.882,183.986 66.905,183.977 66.969 C 183.932 67.284,184.027 67.432,184.292 67.462 C 184.942 67.535,185.164 67.612,185.450 67.862 C 185.922 68.274,192.990 68.212,193.454 67.792 C 193.635 67.628,194.039 67.500,194.374 67.500 C 195.123 67.500,195.500 67.360,195.500 67.083 C 195.500 66.845,195.862 66.667,196.347 66.667 C 196.523 66.667,196.667 66.554,196.667 66.417 C 196.667 66.278,196.815 66.167,197.000 66.167 C 197.222 66.167,197.333 66.056,197.333 65.833 C 197.333 65.609,197.444 65.500,197.674 65.500 C 197.906 65.500,197.999 65.407,197.966 65.208 C 197.933 65.014,198.041 64.899,198.292 64.863 C 198.607 64.819,198.667 64.707,198.667 64.160 C 198.667 63.670,198.724 63.533,198.902 63.601 C 199.045 63.656,199.181 63.549,199.251 63.329 C 199.315 63.130,199.509 62.824,199.683 62.650 C 199.886 62.448,200.000 62.100,200.000 61.686 C 200.000 61.204,200.076 61.019,200.299 60.961 C 200.545 60.896,200.606 60.678,200.639 59.733 C 200.690 58.315,200.730 58.045,200.911 57.880 C 200.989 57.808,200.993 57.862,200.919 58.000 C 200.807 58.207,200.824 58.213,201.017 58.033 C 201.278 57.791,201.401 50.167,201.145 50.167 C 201.071 50.167,201.059 50.041,201.117 49.888 C 201.199 49.676,201.157 49.635,200.946 49.716 C 200.699 49.810,200.667 49.667,200.667 48.479 C 200.667 47.276,200.632 47.126,200.333 47.048 C 200.034 46.970,199.855 46.083,199.980 45.292 C 199.991 45.223,199.850 45.167,199.667 45.167 C 199.458 45.167,199.333 45.056,199.333 44.870 C 199.333 44.707,199.183 44.465,199.000 44.333 C 198.804 44.192,198.667 43.902,198.667 43.630 C 198.667 43.278,198.587 43.167,198.333 43.167 C 198.118 43.167,198.000 43.056,198.000 42.853 C 198.000 42.678,197.851 42.500,197.662 42.450 C 197.476 42.402,197.345 42.262,197.370 42.139 C 197.398 42.008,197.297 41.937,197.125 41.966 C 196.926 41.999,196.833 41.906,196.833 41.674 C 196.833 41.470,196.716 41.323,196.542 41.308 C 196.381 41.294,196.175 41.265,196.083 41.244 C 195.992 41.223,195.823 41.196,195.708 41.186 C 195.594 41.175,195.500 41.082,195.500 40.980 C 195.500 40.850,195.577 40.857,195.750 41.000 C 195.923 41.143,196.000 41.150,196.000 41.020 C 196.000 40.918,195.925 40.824,195.833 40.813 C 195.742 40.801,195.592 40.773,195.500 40.750 C 195.408 40.727,195.071 40.699,194.750 40.688 C 194.285 40.671,194.167 40.599,194.167 40.333 C 194.167 40.010,194.056 40.000,190.401 40.000 C 186.776 40.000,186.632 40.012,186.548 40.333 C 186.478 40.601,186.321 40.667,185.751 40.667 C 185.083 40.667,184.536 40.980,184.779 41.224 C 184.878 41.323,184.446 41.406,184.117 41.350 C 184.044 41.338,184.006 41.460,184.034 41.622 C 184.067 41.819,183.991 41.901,183.804 41.871 C 183.648 41.845,183.481 41.965,183.424 42.144 C 183.167 42.954,182.667 42.678,182.667 41.727 C 182.667 40.987,182.591 40.743,182.262 40.414 L 181.858 40.009 176.398 40.010 C 172.351 40.010,170.874 40.062,170.687 40.213 C 170.488 40.374,170.462 40.373,170.561 40.208 C 170.639 40.079,170.592 40.000,170.436 40.000 C 170.299 40.000,170.150 40.059,170.105 40.132 M246.588 40.328 C 246.380 40.558,246.074 40.667,245.630 40.667 C 244.873 40.667,244.274 40.935,244.438 41.201 C 244.506 41.311,244.475 41.338,244.362 41.268 C 244.150 41.137,242.933 41.322,243.074 41.463 C 243.236 41.625,242.814 41.982,242.571 41.889 C 242.425 41.833,242.333 41.903,242.333 42.071 C 242.333 42.221,242.215 42.389,242.069 42.445 C 241.924 42.501,241.741 42.705,241.663 42.898 C 241.548 43.183,241.519 43.195,241.511 42.958 C 241.498 42.614,241.239 42.574,241.050 42.888 C 240.977 43.009,240.785 43.157,240.625 43.216 C 240.465 43.275,240.333 43.430,240.333 43.560 C 240.333 43.691,240.228 43.838,240.099 43.888 C 239.970 43.937,239.815 44.204,239.754 44.481 C 239.692 44.765,239.505 45.029,239.325 45.086 C 239.150 45.142,239.014 45.239,239.023 45.302 C 239.089 45.761,238.975 45.980,238.721 45.883 C 238.511 45.802,238.468 45.843,238.547 46.049 C 238.605 46.200,238.579 46.368,238.490 46.423 C 238.401 46.478,238.369 46.589,238.419 46.670 C 238.469 46.751,238.357 46.898,238.171 46.998 C 237.895 47.145,237.833 47.345,237.833 48.089 C 237.833 48.757,237.771 49.000,237.601 49.000 C 237.216 49.000,237.188 49.309,237.173 53.778 C 237.157 58.293,237.227 59.167,237.604 59.167 C 237.771 59.167,237.833 59.417,237.833 60.083 C 237.833 60.884,237.875 61.000,238.161 61.000 C 238.385 61.000,238.459 61.080,238.393 61.250 C 238.263 61.589,238.472 62.370,238.661 62.253 C 238.883 62.116,239.137 62.659,239.035 63.050 C 238.975 63.279,239.010 63.347,239.144 63.264 C 239.268 63.188,239.425 63.346,239.572 63.697 C 239.700 64.001,239.849 64.231,239.902 64.208 C 240.174 64.092,240.333 64.200,240.333 64.500 C 240.333 64.722,240.444 64.833,240.667 64.833 C 240.889 64.833,241.000 64.944,241.000 65.167 C 241.000 65.407,241.111 65.500,241.398 65.500 C 241.674 65.500,241.789 65.589,241.773 65.790 C 241.756 66.001,241.910 66.103,242.333 66.165 C 242.703 66.219,242.917 66.342,242.917 66.500 C 242.918 66.742,243.003 66.773,243.779 66.814 C 243.982 66.825,244.167 66.962,244.199 67.125 C 244.234 67.304,244.415 67.422,244.670 67.430 C 245.954 67.471,246.167 67.514,246.167 67.731 C 246.167 68.317,256.624 68.275,256.987 67.687 C 257.061 67.568,257.478 67.478,257.974 67.475 C 258.705 67.469,258.833 67.421,258.833 67.151 C 258.833 66.900,258.954 66.833,259.409 66.833 C 259.806 66.833,260.119 66.700,260.417 66.402 C 260.667 66.152,260.954 66.011,261.099 66.066 C 261.238 66.119,261.314 66.103,261.269 66.030 C 261.224 65.957,261.370 65.760,261.593 65.592 C 261.817 65.424,262.000 65.185,262.000 65.060 C 262.000 64.935,262.141 64.833,262.314 64.833 C 262.488 64.833,262.667 64.684,262.715 64.500 C 262.763 64.317,262.922 64.167,263.068 64.167 C 263.214 64.167,263.333 64.059,263.333 63.928 C 263.333 63.797,263.485 63.641,263.671 63.582 C 263.857 63.523,263.988 63.372,263.963 63.247 C 263.937 63.121,264.052 62.919,264.218 62.796 C 264.527 62.568,264.632 62.249,264.654 61.470 C 264.662 61.190,264.781 60.986,264.972 60.926 C 265.211 60.850,265.281 60.645,265.296 59.973 C 265.307 59.503,265.406 59.035,265.516 58.934 C 265.666 58.796,265.682 58.808,265.582 58.984 C 265.500 59.128,265.513 59.178,265.616 59.115 C 266.092 58.820,266.035 48.220,265.558 48.403 C 265.337 48.488,265.241 47.995,265.293 47.042 C 265.304 46.835,265.238 46.667,265.147 46.667 C 265.055 46.667,265.027 46.592,265.083 46.500 C 265.140 46.408,265.069 46.333,264.927 46.333 C 264.675 46.333,264.587 46.066,264.638 45.458 C 264.654 45.270,264.545 45.167,264.331 45.167 C 264.126 45.167,264.000 45.055,264.000 44.873 C 264.000 44.712,263.850 44.487,263.667 44.372 C 263.483 44.258,263.333 44.079,263.333 43.975 C 263.333 43.872,263.202 43.685,263.042 43.560 C 262.769 43.347,262.771 43.340,263.069 43.445 C 263.290 43.522,263.351 43.496,263.268 43.362 C 263.201 43.254,263.048 43.167,262.926 43.167 C 262.805 43.167,262.666 43.017,262.618 42.833 C 262.559 42.607,262.391 42.500,262.094 42.500 C 261.853 42.500,261.613 42.387,261.560 42.250 C 261.508 42.112,261.357 42.000,261.227 42.000 C 261.096 42.000,260.935 41.869,260.870 41.708 C 260.743 41.400,260.514 41.299,259.833 41.251 C 259.600 41.234,259.417 41.118,259.417 40.985 C 259.417 40.818,259.128 40.726,258.417 40.667 C 257.676 40.605,257.417 40.519,257.417 40.333 C 257.417 39.879,246.999 39.874,246.588 40.328 M252.548 42.167 C 252.596 42.350,252.749 42.500,252.888 42.500 C 253.033 42.500,253.187 42.713,253.250 42.999 C 253.310 43.273,253.460 43.555,253.582 43.624 C 253.718 43.701,253.820 44.109,253.843 44.667 C 253.863 45.171,253.990 45.762,254.125 45.980 C 254.522 46.624,254.489 62.150,254.090 62.373 C 253.831 62.518,253.832 62.547,254.113 62.765 C 254.399 62.987,254.399 62.995,254.118 62.897 C 253.954 62.839,253.832 62.858,253.846 62.938 C 253.970 63.618,253.804 64.833,253.587 64.833 C 253.451 64.833,253.295 65.012,253.240 65.229 C 253.182 65.460,253.026 65.617,252.866 65.604 C 252.715 65.593,252.590 65.696,252.587 65.833 C 252.580 66.295,250.923 66.267,250.595 65.800 C 250.448 65.589,250.291 65.435,250.247 65.458 C 249.979 65.597,249.833 65.438,249.833 65.008 C 249.833 64.716,249.717 64.451,249.546 64.356 C 249.326 64.233,249.267 63.999,249.291 63.348 C 249.308 62.881,249.252 62.500,249.166 62.500 C 249.081 62.500,249.053 62.388,249.106 62.251 C 249.160 62.109,249.087 61.959,248.934 61.900 C 248.554 61.754,248.521 46.333,248.901 46.333 C 249.059 46.333,249.105 46.216,249.041 45.974 C 248.983 45.749,249.012 45.654,249.120 45.721 C 249.232 45.790,249.288 45.502,249.278 44.904 C 249.268 44.263,249.338 43.934,249.505 43.830 C 249.638 43.748,249.755 43.584,249.765 43.465 C 249.775 43.347,249.794 43.081,249.808 42.875 C 249.826 42.611,249.939 42.500,250.190 42.500 C 250.386 42.500,250.654 42.369,250.786 42.208 C 250.946 42.012,250.991 41.999,250.923 42.167 C 250.860 42.320,250.903 42.304,251.035 42.125 C 251.349 41.695,252.433 41.725,252.548 42.167 M304.205 42.167 C 304.320 42.350,304.545 42.500,304.707 42.500 C 304.991 42.500,305.067 42.727,305.012 43.417 C 304.990 43.694,305.014 43.708,305.157 43.500 C 305.304 43.285,305.329 43.291,305.331 43.542 C 305.332 43.702,305.408 43.833,305.500 43.833 C 305.606 43.833,305.667 45.222,305.667 47.667 L 305.667 51.500 303.417 51.500 L 301.167 51.500 301.167 49.258 C 301.167 47.305,301.204 46.993,301.458 46.832 C 301.687 46.687,301.701 46.627,301.523 46.553 C 301.354 46.484,301.346 46.428,301.493 46.337 C 301.604 46.269,301.718 45.709,301.752 45.066 C 301.786 44.434,301.826 43.879,301.843 43.833 C 301.859 43.788,301.865 43.696,301.855 43.631 C 301.845 43.566,301.937 43.550,302.060 43.597 C 302.215 43.657,302.287 43.523,302.297 43.158 C 302.315 42.518,302.369 42.458,302.921 42.458 C 303.166 42.458,303.442 42.322,303.552 42.146 C 303.801 41.747,303.946 41.752,304.205 42.167 M107.833 42.833 C 107.833 43.056,107.944 43.167,108.167 43.167 C 108.368 43.167,108.500 43.278,108.500 43.448 C 108.500 43.602,108.643 43.883,108.818 44.073 C 109.043 44.315,109.163 44.760,109.227 45.583 C 109.277 46.225,109.322 46.769,109.326 46.792 C 109.330 46.815,109.418 46.833,109.520 46.833 C 109.650 46.833,109.643 46.756,109.500 46.583 C 109.330 46.379,109.341 46.333,109.563 46.333 C 109.799 46.333,109.833 46.619,109.833 48.583 L 109.833 50.833 105.908 50.833 L 101.983 50.833 102.013 49.343 C 102.035 48.285,102.107 47.828,102.263 47.768 C 102.410 47.712,102.449 47.773,102.380 47.952 C 102.311 48.132,102.342 48.181,102.472 48.101 C 102.592 48.027,102.667 47.511,102.667 46.758 C 102.667 45.862,102.729 45.512,102.901 45.446 C 103.030 45.396,103.189 45.107,103.256 44.803 C 103.403 44.128,103.732 43.625,103.917 43.793 C 103.992 43.861,104.009 43.838,103.954 43.742 C 103.826 43.515,104.019 43.208,104.335 43.138 C 104.472 43.108,104.681 42.952,104.801 42.792 C 105.151 42.324,107.833 42.361,107.833 42.833 M188.500 43.327 C 188.500 43.416,188.659 43.573,188.853 43.677 C 189.056 43.786,189.163 43.795,189.103 43.699 C 189.043 43.602,189.174 43.612,189.415 43.724 C 189.644 43.830,189.831 44.010,189.832 44.125 C 189.833 44.240,189.906 44.333,189.996 44.333 C 190.085 44.333,190.283 44.577,190.436 44.875 C 190.588 45.173,190.788 45.465,190.879 45.524 C 190.971 45.583,191.045 45.937,191.045 46.311 C 191.045 46.709,191.113 46.950,191.207 46.892 C 191.306 46.830,191.322 46.939,191.249 47.171 C 191.151 47.477,191.180 47.530,191.397 47.447 C 191.642 47.353,191.667 47.934,191.667 53.922 C 191.667 59.658,191.635 60.500,191.417 60.500 C 191.279 60.500,191.161 60.631,191.153 60.792 C 191.080 62.381,190.971 62.906,190.668 63.118 C 190.439 63.278,190.359 63.494,190.399 63.840 C 190.444 64.231,190.392 64.333,190.145 64.333 C 189.973 64.333,189.833 64.446,189.833 64.583 C 189.833 64.840,189.681 64.891,189.056 64.842 C 188.823 64.823,188.657 64.935,188.587 65.157 C 188.527 65.345,188.398 65.500,188.302 65.500 C 188.197 65.500,188.218 65.381,188.352 65.208 C 188.567 64.931,188.561 64.931,188.234 65.208 C 187.798 65.579,187.346 65.581,187.077 65.213 C 186.933 65.016,186.629 64.925,186.101 64.922 C 185.404 64.917,185.255 64.829,185.314 64.458 C 185.324 64.390,185.183 64.333,185.000 64.333 C 184.778 64.333,184.667 64.222,184.667 64.000 C 184.667 63.817,184.610 63.676,184.542 63.686 C 184.173 63.745,184.000 63.632,184.000 63.333 C 184.000 63.150,183.850 62.850,183.667 62.667 C 183.483 62.483,183.333 62.121,183.333 61.861 C 183.333 61.249,183.171 61.099,182.901 61.461 C 182.724 61.699,182.684 60.566,182.673 55.065 C 182.660 48.413,182.723 47.612,183.224 48.113 C 183.284 48.173,183.333 47.947,183.333 47.611 C 183.333 47.222,183.455 46.879,183.667 46.667 C 183.850 46.483,184.000 46.183,184.000 46.000 C 184.000 45.817,184.108 45.667,184.240 45.667 C 184.372 45.667,184.534 45.580,184.599 45.474 C 184.675 45.351,184.645 45.327,184.513 45.408 C 184.355 45.506,184.356 45.459,184.517 45.201 C 184.638 45.007,184.830 44.907,184.974 44.962 C 185.127 45.020,185.178 44.987,185.108 44.874 C 185.045 44.772,185.140 44.645,185.322 44.587 C 185.502 44.530,185.696 44.337,185.753 44.158 C 185.809 43.979,185.963 43.824,186.095 43.813 C 186.226 43.801,186.501 43.782,186.706 43.771 C 186.918 43.759,187.103 43.624,187.135 43.458 C 187.196 43.141,188.500 43.016,188.500 43.327 M205.772 51.587 C 205.715 51.734,205.590 51.806,205.493 51.746 C 205.372 51.671,205.379 51.562,205.516 51.398 C 205.758 51.106,205.912 51.220,205.772 51.587 M204.076 57.511 C 204.016 57.609,204.007 57.729,204.056 57.778 C 204.175 57.897,204.500 57.687,204.500 57.490 C 204.500 57.277,204.212 57.291,204.076 57.511 M203.833 69.178 C 203.833 76.449,203.892 80.298,204.006 80.511 C 204.558 81.542,204.584 81.001,204.539 69.500 C 204.496 58.319,204.491 58.167,204.164 58.167 C 203.837 58.167,203.833 58.303,203.833 69.178 M234.125 58.948 C 233.852 59.020,233.831 59.678,233.804 69.512 C 233.787 75.280,233.768 80.169,233.762 80.375 C 233.753 80.642,233.858 80.765,234.125 80.803 L 234.500 80.857 234.500 69.845 C 234.500 63.789,234.481 58.842,234.458 58.853 C 234.435 58.863,234.285 58.906,234.125 58.948 M86.917 65.333 C 86.860 65.425,86.881 65.500,86.962 65.500 C 87.044 65.500,87.111 65.616,87.111 65.758 C 87.111 65.983,87.081 65.985,86.869 65.774 C 86.658 65.562,86.701 65.167,86.936 65.167 C 86.982 65.167,86.973 65.242,86.917 65.333 " stroke="none" fill="#e4dcdc" fill-rule="evenodd"></path><path id="path1" d="M204.500 57.917 L 204.500 58.667 218.994 58.667 C 235.141 58.667,233.833 58.761,233.833 57.594 C 233.833 57.099,233.708 57.075,232.891 57.417 C 232.057 57.765,227.110 57.765,226.500 57.417 C 225.867 57.055,213.090 57.055,212.224 57.417 C 211.370 57.774,206.412 57.775,205.727 57.418 C 204.811 56.940,204.500 57.067,204.500 57.917 M217.667 62.990 C 217.254 63.162,216.796 63.340,216.648 63.387 C 216.500 63.434,216.087 63.828,215.731 64.262 L 215.083 65.052 215.028 66.827 L 214.972 68.602 215.657 69.467 C 216.033 69.944,216.400 70.333,216.472 70.333 C 216.544 70.333,216.842 70.532,217.135 70.774 L 217.667 71.215 217.667 74.098 C 217.667 77.374,217.556 77.159,219.253 77.184 C 220.890 77.209,220.828 77.334,220.831 73.998 C 220.834 70.952,220.784 71.105,222.119 69.982 C 225.512 67.128,221.785 61.275,217.667 62.990 " stroke="none" fill="#663c33" fill-rule="evenodd"></path><path id="path2" d="M233.833 58.869 C 233.833 58.941,227.233 59.000,219.165 59.000 L 204.498 59.000 204.540 69.875 L 204.583 80.750 219.173 80.793 L 233.763 80.835 233.766 80.459 C 233.768 80.252,233.784 75.340,233.801 69.542 C 233.829 60.489,233.867 59.000,234.073 59.000 C 234.206 59.000,234.350 58.941,234.395 58.869 C 234.439 58.797,234.331 58.738,234.154 58.738 C 233.978 58.738,233.833 58.797,233.833 58.869 M221.142 62.516 C 221.430 62.617,221.667 62.767,221.667 62.850 C 221.667 62.932,221.765 63.000,221.885 63.000 C 222.155 63.000,223.000 63.860,223.000 64.134 C 223.000 64.244,223.071 64.333,223.159 64.333 C 223.376 64.333,223.939 65.643,224.080 66.479 C 224.288 67.710,223.669 69.265,222.494 70.466 L 221.500 71.482 221.500 74.388 L 221.500 77.295 220.916 77.573 C 220.304 77.863,217.776 77.843,217.478 77.545 C 217.403 77.470,217.321 76.063,217.296 74.419 L 217.250 71.431 216.378 70.924 C 215.898 70.645,215.505 70.327,215.503 70.217 C 215.501 70.107,215.394 69.957,215.265 69.883 C 213.655 68.970,214.660 63.000,216.423 63.000 C 216.535 63.000,216.715 62.892,216.825 62.760 C 217.176 62.337,220.147 62.169,221.142 62.516 " stroke="none" fill="#ebd295" fill-rule="evenodd"></path><path id="path3" d="M93.714 32.750 C 93.716 33.208,93.748 33.376,93.786 33.123 C 93.825 32.869,93.824 32.494,93.784 32.289 C 93.744 32.084,93.713 32.292,93.714 32.750 M106.917 39.500 C 106.860 39.592,106.968 39.667,107.157 39.667 C 107.346 39.667,107.500 39.754,107.500 39.861 C 107.500 39.968,107.548 40.007,107.607 39.948 C 107.728 39.828,107.366 39.333,107.156 39.333 C 107.081 39.333,106.973 39.408,106.917 39.500 M182.000 40.069 C 182.000 40.245,182.502 40.720,182.592 40.630 C 182.634 40.588,182.518 40.417,182.334 40.251 C 182.150 40.085,182.000 40.003,182.000 40.069 M114.933 42.141 C 114.875 42.234,114.909 42.360,115.008 42.422 C 115.265 42.580,115.430 42.363,115.216 42.149 C 115.096 42.030,115.003 42.027,114.933 42.141 M315.167 44.899 C 315.167 45.025,315.317 45.167,315.500 45.215 C 315.683 45.263,315.833 45.288,315.833 45.271 C 315.833 45.255,315.683 45.112,315.500 44.955 C 315.245 44.737,315.167 44.724,315.167 44.899 M221.622 46.000 C 221.779 46.183,221.966 46.333,222.038 46.333 C 222.111 46.333,222.076 46.183,221.961 46.000 C 221.847 45.817,221.659 45.667,221.545 45.667 C 221.404 45.667,221.429 45.775,221.622 46.000 M109.186 46.016 C 109.175 46.162,109.317 46.417,109.500 46.583 C 109.800 46.855,109.833 46.857,109.833 46.609 C 109.833 46.457,109.726 46.333,109.596 46.333 C 109.465 46.333,109.323 46.202,109.282 46.042 C 109.220 45.805,109.202 45.800,109.186 46.016 M232.238 46.762 C 232.382 46.906,232.500 47.143,232.500 47.290 C 232.500 47.436,232.541 47.514,232.591 47.464 C 232.766 47.289,232.462 46.500,232.220 46.500 C 232.014 46.500,232.016 46.540,232.238 46.762 M254.383 48.333 C 254.383 48.837,254.415 49.044,254.453 48.792 C 254.491 48.540,254.491 48.127,254.453 47.875 C 254.415 47.623,254.383 47.829,254.383 48.333 M165.540 57.326 C 165.568 62.181,165.643 64.909,165.750 64.945 C 165.977 65.020,165.889 50.156,165.662 49.928 C 165.553 49.819,165.511 52.336,165.540 57.326 M205.516 51.398 C 205.379 51.562,205.372 51.671,205.493 51.746 C 205.590 51.806,205.715 51.734,205.772 51.587 C 205.912 51.220,205.758 51.106,205.516 51.398 M225.902 54.333 C 225.902 55.938,225.927 56.594,225.957 55.792 C 225.988 54.990,225.988 53.677,225.957 52.875 C 225.927 52.073,225.902 52.729,225.902 54.333 M212.666 54.617 C 212.621 56.102,212.642 57.259,212.713 57.188 C 212.784 57.116,212.821 55.901,212.796 54.487 L 212.749 51.917 212.666 54.617 M226.202 54.682 L 226.167 57.280 226.591 57.473 C 227.067 57.690,232.109 57.748,232.611 57.542 C 232.779 57.473,231.454 57.379,229.667 57.333 L 226.417 57.250 226.327 54.667 L 226.237 52.083 226.202 54.682 M205.817 57.453 C 206.197 57.742,211.660 57.747,212.054 57.458 C 212.285 57.289,211.701 57.250,208.944 57.250 C 206.241 57.250,205.604 57.291,205.817 57.453 M204.208 57.777 C 203.918 57.894,203.947 58.167,204.250 58.167 C 204.387 58.167,204.500 58.054,204.500 57.917 C 204.500 57.779,204.481 57.673,204.458 57.680 C 204.435 57.687,204.323 57.731,204.208 57.777 M254.383 60.167 C 254.383 60.671,254.415 60.877,254.453 60.625 C 254.491 60.373,254.491 59.960,254.453 59.708 C 254.415 59.456,254.383 59.663,254.383 60.167 M217.167 63.083 C 216.938 63.214,216.825 63.322,216.917 63.322 C 217.008 63.322,217.271 63.214,217.500 63.083 C 217.729 62.952,217.842 62.845,217.750 62.845 C 217.658 62.845,217.396 62.952,217.167 63.083 M220.833 63.083 C 221.063 63.214,221.325 63.322,221.417 63.322 C 221.508 63.322,221.396 63.214,221.167 63.083 C 220.938 62.952,220.675 62.845,220.583 62.845 C 220.492 62.845,220.604 62.952,220.833 63.083 M222.099 63.848 C 223.818 65.745,223.828 68.545,222.119 69.982 C 220.784 71.105,220.834 70.952,220.831 73.998 C 220.828 77.334,220.890 77.209,219.253 77.184 C 217.556 77.159,217.667 77.375,217.667 74.092 L 217.667 71.204 217.129 70.810 C 216.833 70.594,216.263 70.079,215.861 69.667 L 215.130 68.917 215.490 69.529 C 215.689 69.865,216.128 70.345,216.467 70.595 C 217.512 71.366,217.500 71.322,217.500 74.332 C 217.500 77.627,217.428 77.500,219.294 77.500 C 221.443 77.500,221.333 77.677,221.333 74.202 L 221.333 71.249 222.311 70.231 C 224.157 68.309,224.091 65.135,222.177 63.719 L 221.583 63.280 222.099 63.848 M86.740 65.349 C 86.678 65.450,86.736 65.641,86.869 65.774 C 87.081 65.985,87.111 65.983,87.111 65.758 C 87.111 65.616,87.044 65.500,86.962 65.500 C 86.881 65.500,86.860 65.425,86.917 65.333 C 86.973 65.242,86.982 65.167,86.936 65.167 C 86.891 65.167,86.802 65.249,86.740 65.349 M214.889 67.167 C 214.889 67.854,214.919 68.135,214.955 67.792 C 214.991 67.448,214.991 66.885,214.955 66.542 C 214.919 66.198,214.889 66.479,214.889 67.167 M188.792 68.121 C 189.090 68.158,189.577 68.158,189.875 68.121 C 190.173 68.084,189.929 68.053,189.333 68.053 C 188.737 68.053,188.494 68.084,188.792 68.121 M250.875 68.121 C 251.219 68.157,251.781 68.157,252.125 68.121 C 252.469 68.085,252.188 68.056,251.500 68.056 C 250.813 68.056,250.531 68.085,250.875 68.121 M278.292 68.118 C 278.498 68.157,278.835 68.157,279.042 68.118 C 279.248 68.078,279.079 68.045,278.667 68.045 C 278.254 68.045,278.085 68.078,278.292 68.118 " stroke="none" fill="#acaa9a" fill-rule="evenodd"></path><path id="path4" d="M233.880 57.486 C 233.914 57.631,233.840 57.956,233.716 58.208 L 233.491 58.667 218.996 58.667 C 209.443 58.667,204.500 58.723,204.500 58.833 C 204.500 58.943,209.500 59.000,219.167 59.000 C 227.611 59.000,233.833 58.937,233.833 58.852 C 233.833 58.770,233.965 58.714,234.125 58.727 C 234.352 58.745,234.420 58.612,234.434 58.130 C 234.445 57.746,234.386 57.551,234.281 57.616 C 234.181 57.678,234.150 57.618,234.206 57.472 C 234.264 57.321,234.206 57.222,234.061 57.222 C 233.926 57.222,233.846 57.339,233.880 57.486 M217.387 62.449 C 217.188 62.488,216.935 62.628,216.825 62.760 C 216.715 62.892,216.535 63.000,216.423 63.000 C 214.660 63.000,213.655 68.970,215.265 69.883 C 215.394 69.957,215.501 70.107,215.503 70.217 C 215.505 70.327,215.898 70.645,216.378 70.924 L 217.250 71.431 217.296 74.419 C 217.321 76.063,217.403 77.470,217.478 77.545 C 217.776 77.843,220.304 77.863,220.916 77.573 L 221.500 77.295 221.500 74.388 L 221.500 71.482 222.494 70.466 C 223.669 69.265,224.288 67.710,224.080 66.479 C 223.939 65.643,223.376 64.333,223.159 64.333 C 223.071 64.333,223.000 64.244,223.000 64.134 C 223.000 63.860,222.155 63.000,221.885 63.000 C 221.765 63.000,221.667 62.932,221.667 62.850 C 221.667 62.437,218.818 62.171,217.387 62.449 M220.959 62.996 C 223.963 64.359,224.612 67.835,222.311 70.231 L 221.333 71.249 221.333 74.202 C 221.333 77.677,221.443 77.500,219.294 77.500 C 217.428 77.500,217.500 77.627,217.500 74.332 C 217.500 71.307,217.526 71.396,216.409 70.542 C 212.398 67.473,216.358 60.907,220.959 62.996 " stroke="none" fill="#c8b084" fill-rule="evenodd"></path></g></svg>